<?xml version="1.0" encoding="UTF-8"?>
<svg width="104px" height="162px" viewBox="0 0 104 162" version="1.1" xmlns="http://www.w3.org/2000/svg" xmlns:xlink="http://www.w3.org/1999/xlink">
    <!-- Generator: Sketch 51 (57462) - http://www.bohemiancoding.com/sketch -->
    <title>Shape</title>
    <desc>Created with Sketch.</desc>
    <defs>
        <linearGradient x1="50%" y1="58.8662163%" x2="85.1820282%" y2="58.8662163%" id="linearGradient-1">
            <stop stop-color="#D500FF" offset="0%"></stop>
            <stop stop-color="#B386FA" offset="100%"></stop>
        </linearGradient>
    </defs>
    <g id="Page-1" stroke="none" stroke-width="1" fill="none" fill-rule="evenodd">
        <g id="星链钱包" transform="translate(-616.000000, -176.000000)" fill="url(#linearGradient-1)" fill-rule="nonzero">
            <g id="Group-7" transform="translate(616.000000, 170.000000)">
                <path d="M45.6985294,40 L87.8088235,40 C87.8088235,40 90.8602941,30.3225806 111,14.8387097 C107.338235,12.9032258 101.845588,16.1290323 99.4044118,14.1935484 C96.9632353,12.2580645 97.5735294,5.16129032 91.4705882,3.87096774 C85.3676471,2.58064516 79.2647059,11.6129032 79.2647059,11.6129032 C79.2647059,11.6129032 73.7720588,16.7741935 71.3308824,9.03225806 C69.5,0.64516129 60.3455882,0 57.2941176,0 C54.2426471,0 46.9191176,2.58064516 45.6985294,12.2580645 C45.0882353,15.483871 42.0367647,16.7741935 39.5955882,14.8387097 C37.1544118,12.9032258 33.4926471,12.2580645 28,12.9032258 C34.1029412,20 49.9705882,36.1290323 45.6985294,40 Z M125.43379,133.265438 L125.43379,94.0608154 C124.821918,76.0652508 89.3333333,51 89.3333333,51 L45.890411,51 C30.5936073,60.6404811 11.0136986,81.2068407 9.17808219,94.7035142 C9.17808219,95.3462129 7.9543379,125.553054 7.34246575,135.836233 C6.11872146,146.119413 0,155.759894 0,155.759894 C0,155.759894 15.9086758,167.97117 68.5296804,167.97117 C121.150685,168.613869 128.493151,158.330689 134,155.117196 C126.657534,155.759894 125.43379,133.265438 125.43379,133.265438 Z M88.7974048,126.125984 C88.18054,130.590551 85.7130806,141.433071 71.5251889,142.070866 L71.5251889,151 L61.6553511,151 L61.6553511,142.070866 C55.4867026,141.433071 50.5517837,139.519685 45,137.606299 L48.0843243,125.488189 C52.4023783,127.401575 58.5710269,129.314961 63.5059457,129.952756 C70.2914591,130.590551 75.226378,129.314961 75.226378,124.212598 C76.4601077,115.283465 45.6168649,113.370079 45.6168649,97.4251969 C45,85.3070866 53.636108,80.2047244 62.272216,79.5669291 L62.272216,70 L72.1420537,70 L72.1420537,78.9291339 C77.6938374,78.9291339 82.0118914,80.2047244 86.3299454,82.1181102 L83.862486,93.5984252 C79.544432,91.6850394 75.226378,90.4094488 69.6745943,90.4094488 C65.9734051,90.4094488 59.1878917,90.4094488 58.5710269,95.511811 C58.5710269,103.80315 72.1420537,104.440945 76.4601077,106.354331 C79.544432,107.629921 82.0118914,108.905512 84.4793508,111.456693 C88.7974048,115.283465 89.4142697,120.385827 88.7974048,126.125984 Z" id="Shape"></path>
            </g>
        </g>
    </g>
</svg>