<?xml version="1.0" encoding="UTF-8"?>
<svg width="22px" height="38px" viewBox="0 0 22 38" version="1.1" xmlns="http://www.w3.org/2000/svg" xmlns:xlink="http://www.w3.org/1999/xlink">
    <!-- Generator: Sketch 51 (57462) - http://www.bohemiancoding.com/sketch -->
    <title>Shape</title>
    <desc>Created with Sketch.</desc>
    <defs></defs>
    <g id="Page-1" stroke="none" stroke-width="1" fill="none" fill-rule="evenodd">
        <g id="星链钱包" transform="translate(-32.000000, -69.000000)" fill="#FFFFFF" fill-rule="nonzero">
            <g id="返回" transform="translate(32.000000, 69.000000)">
                <path d="M5.16690246,19.0080211 L20.9682399,33.9675428 C21.67739,34.6346832 21.6810085,35.7197602 20.9763266,36.3911302 C20.975575,36.3918463 20.9748227,36.3925618 20.9740697,36.3932766 L20.709976,36.6433008 C20.0020735,37.3116257 18.8559324,37.3101174 18.1499988,36.6399279 C18.1492458,36.6392131 18.1484935,36.6384976 18.1477419,36.6377815 L1.03235374,20.4336814 C0.635684914,20.059995 0.443362531,19.5339253 0.511163658,19.0080477 C0.443355766,18.4820029 0.635668003,17.9557625 1.03235382,17.5818589 L18.147742,1.37829247 C18.8524244,0.70692226 19.9985618,0.703496521 20.7077119,1.37063666 C20.7084683,1.37134824 20.709224,1.37206045 20.709979,1.37277329 L20.9740728,1.62279743 C21.6800064,2.29298653 21.6784132,3.37806704 20.97051,4.04639204 C20.9697549,4.04710488 20.9689992,4.04781709 20.9682428,4.04852866 L5.16690538,19.0080504 L5.16690246,19.0080211 Z" id="Shape"></path>
            </g>
        </g>
    </g>
</svg>