<?xml version="1.0" encoding="UTF-8"?>
<svg width="34px" height="34px" viewBox="0 0 34 34" version="1.1" xmlns="http://www.w3.org/2000/svg" xmlns:xlink="http://www.w3.org/1999/xlink">
    <!-- Generator: Sketch 51 (57462) - http://www.bohemiancoding.com/sketch -->
    <title>Shape</title>
    <desc>Created with Sketch.</desc>
    <defs></defs>
    <g id="Page-1" stroke="none" stroke-width="1" fill="none" fill-rule="evenodd">
        <g id="首页" transform="translate(-498.000000, -1126.000000)" fill="#FFFFFF" fill-rule="nonzero">
            <g id="Group-2" transform="translate(498.000000, 1126.000000)">
                <g id="钱包">
                    <path d="M27.3238389,20.5454394 L27.3238389,20.5454396 C27.3238391,21.3552073 27.9945579,22.011651 28.8219317,22.011651 C29.6493056,22.0116509 30.3200245,21.3552041 30.3200245,20.5454396 C30.3200245,19.7356719 29.6493056,19.0792282 28.8219317,19.0792282 C27.9945579,19.0792282 27.3238389,19.7356719 27.3238389,20.5454396 L27.3238389,20.5454394 Z M28.3945193,5.88294336 L25.9042983,1.66114056 C25.3644638,0.746365704 24.1693766,0.432995956 23.2348272,0.961071403 L14.5248506,5.88294336 L28.3945193,5.88294336 Z M27.8937655,23.7170111 C26.1040657,23.7170111 24.6533257,22.2970763 24.6533257,20.545503 C24.6533257,18.7937388 26.1040657,17.3738676 27.8937655,17.3738676 L33.6744497,17.3738676 L33.6744497,9.70792571 C33.6744497,8.65171116 32.7995635,7.79543453 31.7204156,7.79543453 L2.27963559,7.79543453 C1.20048771,7.79543453 0.325601522,8.65177482 0.325601522,9.70792571 L0.325601522,31.3830167 C0.325601522,32.4392949 1.20048771,33.2955079 2.27963559,33.2955079 L31.7204156,33.2955079 C32.7995635,33.2955079 33.6744497,32.4392949 33.6744497,31.3830167 L33.6744497,23.7170111 L27.8937655,23.7170111 Z" id="Shape"></path>
                </g>
            </g>
        </g>
    </g>
</svg>