<?xml version="1.0" encoding="UTF-8"?>
<svg width="65px" height="77px" viewBox="0 0 65 77" version="1.1" xmlns="http://www.w3.org/2000/svg" xmlns:xlink="http://www.w3.org/1999/xlink">
    <!-- Generator: Sketch 51 (57462) - http://www.bohemiancoding.com/sketch -->
    <title>Group</title>
    <desc>Created with Sketch.</desc>
    <defs>
        <filter x="-33.8%" y="-27.0%" width="167.7%" height="153.9%" filterUnits="objectBoundingBox" id="filter-1">
            <feGaussianBlur stdDeviation="4.8515634" in="SourceGraphic"></feGaussianBlur>
        </filter>
    </defs>
    <g id="Page-1" stroke="none" stroke-width="1" fill="none" fill-rule="evenodd">
        <g id="星链钱包" transform="translate(-59.000000, -264.000000)" fill-rule="nonzero">
            <g id="Group" transform="translate(59.000000, 264.000000)">
                <path d="M25.5296804,23.7764385 L39.0776256,23.7764385 C39.0776256,23.7764385 40.0593607,20.6853647 46.5388128,15.7396465 C45.3607306,15.1214318 43.5936073,16.1517897 42.8082192,15.5335749 C42.0228311,14.9153602 42.2191781,12.6485727 40.2557078,12.2364295 C38.2922374,11.8242864 36.3287671,14.7092886 36.3287671,14.7092886 C36.3287671,14.7092886 34.5616438,16.3578613 33.7762557,13.8850022 C33.1872146,11.2060716 30.2420091,11 29.260274,11 C28.2785388,11 25.9223744,11.8242864 25.5296804,14.9153602 C25.3333333,15.9457181 24.3515982,16.3578613 23.56621,15.7396465 C22.7808219,15.1214318 21.6027397,14.9153602 19.8356164,15.1214318 C21.7990868,17.3882192 26.9041096,22.540009 25.5296804,23.7764385 Z M51.2511416,53.8628904 L51.2511416,41.2925235 C51.0547945,35.522519 39.6666667,27.4857271 39.6666667,27.4857271 L25.7260274,27.4857271 C20.8173516,30.5768009 14.5342466,37.1710917 13.9452055,41.4985951 C13.9452055,41.7046667 13.5525114,51.3900314 13.3561644,54.6871768 C12.9634703,57.9843222 11,61.075396 11,61.075396 C11,61.075396 16.1050228,64.9907562 32.9908676,64.9907562 C49.8767123,65.1968278 52.2328767,61.8996824 54,60.8693244 C51.6438356,61.075396 51.2511416,53.8628904 51.2511416,53.8628904 Z M39.4703196,51.8021745 C39.2739726,53.2446756 38.4885845,56.7478927 33.9726027,56.9539642 L33.9726027,59.8389665 L30.8310502,59.8389665 L30.8310502,56.9539642 C28.8675799,56.7478927 27.2968037,56.1296779 25.5296804,55.5114631 L26.5114155,51.5961029 C27.8858447,52.2143177 29.8493151,52.8325325 31.4200913,53.0386041 C33.5799087,53.2446756 35.1506849,52.8325325 35.1506849,51.1839598 C35.543379,48.2989575 25.7260274,47.6807428 25.7260274,42.528953 C25.5296804,38.6135929 28.2785388,36.9650202 31.0273973,36.7589486 L31.0273973,33.6678747 L34.1689498,33.6678747 L34.1689498,36.552877 C35.9360731,36.552877 37.3105023,36.9650202 38.6849315,37.5832349 L37.8995434,41.2925235 C36.5251142,40.6743087 35.1506849,40.2621656 33.3835616,40.2621656 C32.2054795,40.2621656 30.0456621,40.2621656 29.8493151,41.9107383 C29.8493151,44.5896689 34.1689498,44.7957405 35.543379,45.4139553 C36.5251142,45.8260985 37.3105023,46.2382416 38.0958904,47.062528 C39.4703196,48.2989575 39.6666667,49.9475302 39.4703196,51.8021745 Z" id="Shape" fill="#FFD14F" filter="url(#filter-1)"></path>
                <path d="M25.5296804,23.7764385 L39.0776256,23.7764385 C39.0776256,23.7764385 40.0593607,20.6853647 46.5388128,15.7396465 C45.3607306,15.1214318 43.5936073,16.1517897 42.8082192,15.5335749 C42.0228311,14.9153602 42.2191781,12.6485727 40.2557078,12.2364295 C38.2922374,11.8242864 36.3287671,14.7092886 36.3287671,14.7092886 C36.3287671,14.7092886 34.5616438,16.3578613 33.7762557,13.8850022 C33.1872146,11.2060716 30.2420091,11 29.260274,11 C28.2785388,11 25.9223744,11.8242864 25.5296804,14.9153602 C25.3333333,15.9457181 24.3515982,16.3578613 23.56621,15.7396465 C22.7808219,15.1214318 21.6027397,14.9153602 19.8356164,15.1214318 C21.7990868,17.3882192 26.9041096,22.540009 25.5296804,23.7764385 Z M51.2511416,53.8628904 L51.2511416,41.2925235 C51.0547945,35.522519 39.6666667,27.4857271 39.6666667,27.4857271 L25.7260274,27.4857271 C20.8173516,30.5768009 14.5342466,37.1710917 13.9452055,41.4985951 C13.9452055,41.7046667 13.5525114,51.3900314 13.3561644,54.6871768 C12.9634703,57.9843222 11,61.075396 11,61.075396 C11,61.075396 16.1050228,64.9907562 32.9908676,64.9907562 C49.8767123,65.1968278 52.2328767,61.8996824 54,60.8693244 C51.6438356,61.075396 51.2511416,53.8628904 51.2511416,53.8628904 Z M39.4703196,51.8021745 C39.2739726,53.2446756 38.4885845,56.7478927 33.9726027,56.9539642 L33.9726027,59.8389665 L30.8310502,59.8389665 L30.8310502,56.9539642 C28.8675799,56.7478927 27.2968037,56.1296779 25.5296804,55.5114631 L26.5114155,51.5961029 C27.8858447,52.2143177 29.8493151,52.8325325 31.4200913,53.0386041 C33.5799087,53.2446756 35.1506849,52.8325325 35.1506849,51.1839598 C35.543379,48.2989575 25.7260274,47.6807428 25.7260274,42.528953 C25.5296804,38.6135929 28.2785388,36.9650202 31.0273973,36.7589486 L31.0273973,33.6678747 L34.1689498,33.6678747 L34.1689498,36.552877 C35.9360731,36.552877 37.3105023,36.9650202 38.6849315,37.5832349 L37.8995434,41.2925235 C36.5251142,40.6743087 35.1506849,40.2621656 33.3835616,40.2621656 C32.2054795,40.2621656 30.0456621,40.2621656 29.8493151,41.9107383 C29.8493151,44.5896689 34.1689498,44.7957405 35.543379,45.4139553 C36.5251142,45.8260985 37.3105023,46.2382416 38.0958904,47.062528 C39.4703196,48.2989575 39.6666667,49.9475302 39.4703196,51.8021745 Z" id="Shape" fill="#FFE94F"></path>
            </g>
        </g>
    </g>
</svg>