<?xml version="1.0" encoding="UTF-8"?>
<svg width="36px" height="42px" viewBox="0 0 36 42" version="1.1" xmlns="http://www.w3.org/2000/svg" xmlns:xlink="http://www.w3.org/1999/xlink">
    <!-- Generator: Sketch 51 (57462) - http://www.bohemiancoding.com/sketch -->
    <title>资产</title>
    <desc>Created with Sketch.</desc>
    <defs>
        <filter x="-33.6%" y="-27.0%" width="167.1%" height="153.9%" filterUnits="objectBoundingBox" id="filter-1">
            <feGaussianBlur stdDeviation="2.695313" in="SourceGraphic"></feGaussianBlur>
        </filter>
    </defs>
    <g id="Page-1" stroke="none" stroke-width="1" fill="none" fill-rule="evenodd">
        <g id="首页" transform="translate(-34.000000, -81.000000)" fill="#FFD14F" fill-rule="nonzero">
            <g id="资产" transform="translate(34.000000, 81.000000)">
                <path d="M14.1400095,13.0980214 L21.7300183,13.0980214 C21.7300183,13.0980214 22.2800189,11.3807581 25.9100232,8.63313696 C25.2500224,8.28968432 24.2600212,8.8621054 23.8200207,8.51865275 C23.3800202,8.1752001 23.4900204,6.91587373 22.3900191,6.6869053 C21.2900178,6.45793686 20.1900165,8.06071589 20.1900165,8.06071589 C20.1900165,8.06071589 19.2000154,8.97658961 18.7600148,7.60277902 C18.4300145,6.11448422 16.7800125,6 16.2300119,6 C15.6800113,6 14.3600097,6.45793686 14.1400095,8.1752001 C14.0300093,8.74762118 13.4800087,8.97658961 13.0400082,8.63313696 C12.6000077,8.28968432 11.9400069,8.1752001 10.9500058,8.28968432 C12.050007,9.54901069 14.9100104,12.4111161 14.1400095,13.0980214 Z M28.5500262,29.8127169 L28.5500262,22.8291797 C28.4400261,19.6236217 22.0600187,15.1587373 22.0600187,15.1587373 L14.2500096,15.1587373 C11.5000064,16.8760005 7.9800023,20.5394954 7.65000192,22.9436639 C7.65000192,23.0581482 7.43000166,28.4389063 7.32000154,30.2706538 C7.10000128,32.1024012 6,33.8196645 6,33.8196645 C6,33.8196645 8.86000333,35.9948646 18.3200143,35.9948646 C27.7800253,36.1093488 29.1000269,34.2776013 30.090028,33.7051802 C28.7700265,33.8196645 28.5500262,29.8127169 28.5500262,29.8127169 Z M21.9500186,28.6678747 C21.8400184,29.4692642 21.4000179,31.4154959 18.870015,31.5299801 L18.870015,33.1327592 L17.1100129,33.1327592 L17.1100129,31.5299801 C16.0100116,31.4154959 15.1300106,31.0720433 14.1400095,30.7285906 L14.6900101,28.5533905 C15.460011,28.8968432 16.5600123,29.2402958 17.4400133,29.35478 C18.6500147,29.4692642 19.5300157,29.2402958 19.5300157,28.3244221 C19.750016,26.7216431 14.2500096,26.3781904 14.2500096,23.516085 C14.1400095,21.3408849 15.6800113,20.4250112 17.2200131,20.310527 L17.2200131,18.5932637 L18.9800151,18.5932637 L18.9800151,20.1960428 C19.9700163,20.1960428 20.7400172,20.4250112 21.510018,20.7684638 L21.0700175,22.8291797 C20.3000166,22.4857271 19.5300157,22.2567587 18.5400146,22.2567587 C17.8800138,22.2567587 16.6700124,22.2567587 16.5600123,23.1726324 C16.5600123,24.6609272 18.9800151,24.7754114 19.750016,25.118864 C20.3000166,25.3478325 20.7400172,25.5768009 21.1800177,26.0347378 C21.9500186,26.7216431 22.0600187,27.6375168 21.9500186,28.6678747 Z" id="Shape" filter="url(#filter-1)"></path>
                <path d="M14.1400095,13.0980214 L21.7300183,13.0980214 C21.7300183,13.0980214 22.2800189,11.3807581 25.9100232,8.63313696 C25.2500224,8.28968432 24.2600212,8.8621054 23.8200207,8.51865275 C23.3800202,8.1752001 23.4900204,6.91587373 22.3900191,6.6869053 C21.2900178,6.45793686 20.1900165,8.06071589 20.1900165,8.06071589 C20.1900165,8.06071589 19.2000154,8.97658961 18.7600148,7.60277902 C18.4300145,6.11448422 16.7800125,6 16.2300119,6 C15.6800113,6 14.3600097,6.45793686 14.1400095,8.1752001 C14.0300093,8.74762118 13.4800087,8.97658961 13.0400082,8.63313696 C12.6000077,8.28968432 11.9400069,8.1752001 10.9500058,8.28968432 C12.050007,9.54901069 14.9100104,12.4111161 14.1400095,13.0980214 Z M28.5500262,29.8127169 L28.5500262,22.8291797 C28.4400261,19.6236217 22.0600187,15.1587373 22.0600187,15.1587373 L14.2500096,15.1587373 C11.5000064,16.8760005 7.9800023,20.5394954 7.65000192,22.9436639 C7.65000192,23.0581482 7.43000166,28.4389063 7.32000154,30.2706538 C7.10000128,32.1024012 6,33.8196645 6,33.8196645 C6,33.8196645 8.86000333,35.9948646 18.3200143,35.9948646 C27.7800253,36.1093488 29.1000269,34.2776013 30.090028,33.7051802 C28.7700265,33.8196645 28.5500262,29.8127169 28.5500262,29.8127169 Z M21.9500186,28.6678747 C21.8400184,29.4692642 21.4000179,31.4154959 18.870015,31.5299801 L18.870015,33.1327592 L17.1100129,33.1327592 L17.1100129,31.5299801 C16.0100116,31.4154959 15.1300106,31.0720433 14.1400095,30.7285906 L14.6900101,28.5533905 C15.460011,28.8968432 16.5600123,29.2402958 17.4400133,29.35478 C18.6500147,29.4692642 19.5300157,29.2402958 19.5300157,28.3244221 C19.750016,26.7216431 14.2500096,26.3781904 14.2500096,23.516085 C14.1400095,21.3408849 15.6800113,20.4250112 17.2200131,20.310527 L17.2200131,18.5932637 L18.9800151,18.5932637 L18.9800151,20.1960428 C19.9700163,20.1960428 20.7400172,20.4250112 21.510018,20.7684638 L21.0700175,22.8291797 C20.3000166,22.4857271 19.5300157,22.2567587 18.5400146,22.2567587 C17.8800138,22.2567587 16.6700124,22.2567587 16.5600123,23.1726324 C16.5600123,24.6609272 18.9800151,24.7754114 19.750016,25.118864 C20.3000166,25.3478325 20.7400172,25.5768009 21.1800177,26.0347378 C21.9500186,26.7216431 22.0600187,27.6375168 21.9500186,28.6678747 Z" id="Shape"></path>
            </g>
        </g>
    </g>
</svg>