<?xml version="1.0" encoding="UTF-8"?>
<svg width="36px" height="36px" viewBox="0 0 36 36" version="1.1" xmlns="http://www.w3.org/2000/svg" xmlns:xlink="http://www.w3.org/1999/xlink">
    <!-- Generator: Sketch 51 (57462) - http://www.bohemiancoding.com/sketch -->
    <title>邀请</title>
    <desc>Created with Sketch.</desc>
    <defs></defs>
    <g id="Page-1" stroke="none" stroke-width="1" fill="none" fill-rule="evenodd">
        <g id="首页" transform="translate(-96.000000, -1128.000000)" fill="#FFFFFF" fill-rule="nonzero">
            <g id="Group-3" transform="translate(96.000000, 1125.000000)">
                <g id="邀请" transform="translate(0.000000, 3.000000)">
                    <path d="M19.4350256,28.6965255 C19.4350256,25.6165255 20.9050256,22.8865255 23.1800256,21.1365255 C23.0050256,20.7515255 22.9000256,20.2965255 22.9000256,19.8415255 C22.9000256,18.7565255 23.7400256,17.8465255 24.3700256,17.2165255 C25.8400256,15.4665255 26.6800256,13.0865255 26.6800256,10.4615255 C26.6800256,4.93152552 22.7600256,0.486525523 17.9300256,0.486525523 C13.1000256,0.486525523 9.1800256,4.93152552 9.1800256,10.4615255 C9.1800256,13.0865255 10.0900256,15.4665255 11.4900256,17.2165255 C12.3300256,17.7415255 12.9600256,18.7565255 12.9600256,19.8415255 C12.9600256,20.8565255 12.5050256,21.7665255 11.7350256,22.2915255 L11.7350256,22.3615255 C11.6650256,22.3615255 11.5950256,22.4315255 11.4900256,22.4315255 C11.0350256,22.7465255 10.4750256,22.8865255 9.8800256,22.8865255 C6.1000256,24.1815255 2.9500256,26.1765255 1.0950256,28.6965255 L1.1650256,28.6965255 C0.7100256,29.3615255 0.5000256,30.1665255 0.5000256,31.0065255 C0.5000256,33.3865255 2.4950256,35.3115255 4.9450256,35.3815255 L22.1650256,35.3815255 C20.4850256,33.6315255 19.4350256,31.2865255 19.4350256,28.6965255 Z M28.8850256,22.0815255 C25.2450256,22.0815255 22.2700256,25.0215255 22.2700256,28.6965255 C22.2700256,32.3715255 25.2100256,35.3115255 28.8850256,35.3115255 C32.5600256,35.3115255 35.5000256,32.3365255 35.5000256,28.6965255 C35.5000256,25.0565255 32.5250256,22.0815255 28.8850256,22.0815255 Z M32.5250256,29.1165255 L29.7600256,29.1165255 L29.7600256,31.8815255 L28.0100256,31.8815255 L28.0100256,29.1165255 L25.2450256,29.1165255 L25.2450256,27.3665255 L28.0100256,27.3665255 L28.0100256,24.6015255 L29.7600256,24.6015255 L29.7600256,27.3665255 L32.5250256,27.3665255 L32.5250256,29.1165255 Z" id="Shape"></path>
                </g>
            </g>
        </g>
    </g>
</svg>